{"asset":{"version":"2.0","generator":"kawaii excess-morph test fixture"},"scene":0,"scenes":[{"nodes":[0]}],"nodes":[{"mesh":0,"name":"ExcessMorphTri"}],"meshes":[{"primitives":[{"attributes":{"POSITION":0},"indices":5,"targets":[{"TANGENT":2},{"POSITION":1},{"TANGENT":2},{"TANGENT":2},{"TANGENT":2},{"TANGENT":2},{"TANGENT":2},{"TANGENT":2},{"TANGENT":2},{"TANGENT":2},{"TANGENT":2},{"TANGENT":2},{"TANGENT":2},{"TANGENT":2},{"TANGENT":2},{"TANGENT":2},{"TANGENT":2},{"TANGENT":2}]}],"weights":[0.0,0.0,0.0,0.0,0.0,0.0,0.0,0.0,0.0,0.0,0.0,0.0,0.0,0.0,0.0,0.0,0.0,0.0]}],"accessors":[{"bufferView":0,"componentType":5126,"count":3,"type":"VEC3","min":[0,0,0],"max":[1,1,0]},{"bufferView":1,"componentType":5126,"count":3,"type":"VEC3"},{"bufferView":2,"componentType":5126,"count":3,"type":"VEC4"},{"bufferView":3,"componentType":5126,"count":2,"type":"SCALAR","min":[0.0],"max":[1.0]},{"bufferView":4,"componentType":5126,"count":36,"type":"SCALAR"},{"bufferView":5,"componentType":5123,"count":3,"type":"SCALAR"}],"bufferViews":[{"buffer":0,"byteOffset":0,"byteLength":36,"target":34962},{"buffer":0,"byteOffset":36,"byteLength":36,"target":34962},{"buffer":0,"byteOffset":72,"byteLength":48,"target":34962},{"buffer":0,"byteOffset":120,"byteLength":8},{"buffer":0,"byteOffset":128,"byteLength":144},{"buffer":0,"byteOffset":272,"byteLength":6,"target":34963}],"buffers":[{"byteLength":278,"uri":"data:application/octet-stream;base64,"}],"animations":[{"name":"ExcessMorphAnim","samplers":[{"input":3,"output":4,"interpolation":"LINEAR"}],"channels":[{"sampler":0,"target":{"node":0,"path":"weights"}}]}]}